{"title":"Green Day - Awesome As Fuck (Live) (2011) DVD@720p","uid":6512662,"size":6194313216,"categoryP":"video","categoryS":"music_videos","magnet":"?xt=urn:btih:42fc482d3cc0821bbfe2ee8dc552b4043b873527&amp;dn=Green+Day+-+Awesome+As+Fuck+%28Live%29+%282011%29+DVD%40720p&amp;tr=udp%3A%2F%2Ftracker.openbittorrent.com%3A80&amp;tr=udp%3A%2F%2Fopen.demonii.com%3A1337&amp;tr=udp%3A%2F%2Ftracker.coppersurfer.tk%3A6969&amp;tr=udp%3A%2F%2Fexodus.desync.com%3A6969","seeders":2,"leechers":1,"uploader":"avd17","files":24,"time":1309698034,"description":"General\nFormat                           : MPEG-PS\nFile size                        : 1 024 MiB\nDuration                         : 14mn 39s\nOverall bit rate                 : 9 765 Kbps\n\nVideo\nID                               : 224 (0xE0)\nFormat                           : MPEG Video\nFormat version                   : Version 2\nFormat profile                   : Main@Main\nFormat settings, BVOP            : Yes\nFormat settings, Matrix          : Default\nBit rate mode                    : Constant\nBit rate                         : 7 600 Kbps\nWidth                            : 720 pixels\nHeight                           : 480 pixels\nDisplay aspect ratio             : 16:9\nFrame rate                       : 29.970 fps\nStandard                         : NTSC\nColor space                      : YUV\nChroma subsampling               : 4:2:0\nBit depth                        : 8 bits\nScan type                        : Interlaced\nScan order                       : Top Field First\nCompression mode                 : Lossy\nBits/(Pixel*Frame)               : 0.734\nStream size                      : 795 MiB (78%)\n\nAudio #1\nID                               : 189 (0xBD)-129 (0x81)\nFormat                           : AC-3\nFormat/Info                      : Audio Coding 3\nMode extension                   : CM (complete main)\nMuxing mode                      : DVD-Video\nBit rate mode                    : Constant\nBit rate                         : 448 Kbps\nChannel(s)                       : 6 channels\nChannel positions                : Front: L C R, Side: L R, LFE\nSampling rate                    : 48.0 KHz\nBit depth                        : 16 bits\nCompression mode                 : Lossy\nStream size                      : 47.0 MiB (5%)\n\nAudio #2\nID                               : 189 (0xBD)-160 (0xA0)\nFormat                           : PCM\nFormat settings, Endianness      : Big\nFormat settings, Sign            : Signed\nMuxing mode                      : DVD-Video\nBit rate mode                    : Constant\nBit rate                         : 1 536 Kbps\nChannel(s)                       : 2 channels\nChannel positions                : Front: L R\nSampling rate                    : 48.0 KHz\nBit depth                        : 16 bits\nStream size                      : 161 MiB (16%)\n\nMenu - YES\n\nFor the CD@320kbps: see my comment below","torrent":{"xt":"urn:btih:42fc482d3cc0821bbfe2ee8dc552b4043b873527","amp;dn":"Green+Day+-+Awesome+As+Fuck+%28Live%29+%282011%29+DVD%40720p","amp;tr":["udp%3A%2F%2Ftracker.openbittorrent.com%3A80","udp%3A%2F%2Fopen.demonii.com%3A1337","udp%3A%2F%2Ftracker.coppersurfer.tk%3A6969","udp%3A%2F%2Fexodus.desync.com%3A6969"],"infoHash":"42fc482d3cc0821bbfe2ee8dc552b4043b873527","infoHashBuffer":{"type":"Buffer","data":[66,252,72,45,60,192,130,27,191,226,238,141,197,82,180,4,59,135,53,39]},"announce":[],"urlList":[]}}